Coordinates
version=1
nRows=29
nColumns=22
inDegrees=yes

Units are S.I. units (second, meters, Newtons, ...)
If the header above contains a line with 'inDegrees', this indicates whether rotational values are in degrees (yes) or radians (no).

endheader
time	pelvis_tilt	pelvis_list	pelvis_rotation	pelvis_tx	pelvis_ty	pelvis_tz	hip_flexion_r	hip_adduction_r	hip_rotation_r	knee_angle_r	ankle_angle_r	subtalar_angle_r	hip_flexion_l	hip_adduction_l	hip_rotation_l	knee_angle_l	ankle_angle_l	subtalar_angle_l	lumbar_extension	lumbar_bending	lumbar_rotation
      0.01000000	    -10.66690737	      2.79396849	    -33.27949995	     -0.99191041	      0.88358975	     -0.38677121	     11.36946950	      2.19815715	      4.13970702	     -5.10937952	      9.20754881	     -2.43330983	     10.61131961	     -3.96130727	     -7.73607311	    -10.09791845	     14.57398636	      0.33373955	      4.18910765	      1.48320977	     12.34104456
      0.02000000	    -10.66630630	      2.79022536	    -33.26468135	     -0.99187367	      0.88358381	     -0.38677040	     11.36508489	      2.19790558	      4.14029884	     -5.11396627	      9.20892616	     -2.43380520	     10.60834064	     -3.96153595	     -7.73563026	    -10.09762015	     14.57445712	      0.33388047	      4.19589099	      1.47715064	     12.34720189
      0.03000000	    -10.66253364	      2.78854459	    -33.23958950	     -0.99181871	      0.88357576	     -0.38679463	     11.35673406	      2.19034401	      4.10837483	     -5.11391724	      9.22937388	     -2.43871245	     10.59980551	     -3.95335997	     -7.70148595	    -10.08777719	     14.58144864	      0.33526194	      4.20065206	      1.46426519	     12.38106874
      0.04000000	    -10.66336737	      2.78343110	    -33.21777187	     -0.99177810	      0.88356885	     -0.38681025	     11.35306627	      2.19077815	      4.10928449	     -5.11971935	      9.23044022	     -2.43914546	     10.59707314	     -3.95388429	     -7.70064812	    -10.08373484	     14.58229074	      0.33503822	      4.20582105	      1.45810498	     12.38641637
      0.05000000	    -10.66107095	      2.78243112	    -33.16780927	     -0.99169590	      0.88355850	     -0.38688731	     11.35476172	      2.17736407	      4.04160358	     -5.13900938	      9.26355667	     -2.45045318	     10.57795557	     -3.93620961	     -7.61253994	    -10.03977841	     14.58077606	      0.32981682	      4.20905274	      1.44524838	     12.38195166
      0.06000000	    -10.66392561	      2.77796017	    -33.14451401	     -0.99166074	      0.88355242	     -0.38691968	     11.35264940	      2.17774434	      4.04235549	     -5.14196251	      9.26405820	     -2.45072368	     10.57863550	     -3.93699240	     -7.61303921	    -10.03595711	     14.58097535	      0.32920618	      4.21158068	      1.43864989	     12.39246589
      0.07000000	    -10.67289547	      2.78383059	    -33.11804114	     -0.99161314	      0.88352866	     -0.38697816	     11.36108658	      2.16937316	      4.01109827	     -5.13881392	      9.27378096	     -2.45447020	     10.58438435	     -3.92735783	     -7.57378628	    -10.02011973	     14.58223421	      0.32636845	      4.22470370	      1.42546517	     12.44315156
      0.08000000	    -10.68767596	      2.80282891	    -33.09011816	     -0.99158756	      0.88349108	     -0.38704310	     11.39550725	      2.15411228	      3.98873229	     -5.16011598	      9.28534029	     -2.46046984	     10.59679708	     -3.90841674	     -7.52282742	     -9.98766819	     14.57732564	      0.31880846	      4.24698681	      1.40065417	     12.46713453
      0.09000000	    -10.69348180	      2.80094592	    -33.06888641	     -0.99156284	      0.88348287	     -0.38710546	     11.40004703	      2.15246931	      3.99138362	     -5.16301862	      9.28646680	     -2.46079133	     10.60145726	     -3.90751522	     -7.52430647	     -9.98125857	     14.57683527	      0.31778571	      4.24365774	      1.39434516	     12.47550746
      0.10000000	    -10.73508307	      2.87111334	    -33.05625601	     -0.99158351	      0.88337283	     -0.38719227	     11.51406980	      2.10940542	      3.99077342	     -5.22547164	      9.32137629	     -2.46961768	     10.66657467	     -3.85811699	     -7.47231865	     -9.94627281	     14.54747144	      0.29145932	      4.31711972	      1.33708379	     12.52344510
      0.11000000	    -10.75000089	      2.88279208	    -33.04449467	     -0.99157450	      0.88334304	     -0.38726219	     11.53802450	      2.10199390	      3.98546463	     -5.22907951	      9.33082801	     -2.47047587	     10.69423808	     -3.85117410	     -7.46125705	     -9.95584290	     14.54543655	      0.28271459	      4.32463195	      1.31941940	     12.57602627
      0.12000000	    -10.79717756	      2.94734620	    -33.04632115	     -0.99160391	      0.88322880	     -0.38733870	     11.65249094	      2.06910743	      4.01977116	     -5.28875569	      9.35759068	     -2.47127374	     10.77201121	     -3.81530907	     -7.46333605	     -9.94556508	     14.53347404	      0.24903495	      4.39474567	      1.27166058	     12.61930798
      0.13000000	    -10.82982903	      2.97998647	    -33.03824076	     -0.99159340	      0.88315779	     -0.38741915	     11.71685355	      2.05364737	      4.02398996	     -5.31704103	      9.37251709	     -2.46930649	     10.82760407	     -3.79836538	     -7.45464168	     -9.95443203	     14.53561234	      0.22261666	      4.42931350	      1.24327227	     12.66510126
      0.14000000	    -10.84254008	      2.98559399	    -33.02602153	     -0.99152992	      0.88313776	     -0.38748306	     11.72855219	      2.04804677	      4.02007731	     -5.31572190	      9.37716644	     -2.46879358	     10.84379117	     -3.79331836	     -7.44300024	     -9.95798292	     14.53406210	      0.21850286	      4.42950599	      1.22608651	     12.70072668
      0.15000000	    -10.85303934	      2.98378944	    -33.01106885	     -0.99143359	      0.88312470	     -0.38754467	     11.73220354	      2.04651936	      4.02210730	     -5.31665270	      9.37774621	     -2.46861467	     10.84900188	     -3.79233033	     -7.44416293	     -9.95331696	     14.53510122	      0.21763325	      4.42301612	      1.21624875	     12.70908683
      0.16000000	    -10.86895712	      3.00008193	    -32.99596852	     -0.99129953	      0.88308914	     -0.38761863	     11.74959575	      2.02899700	      4.01162189	     -5.31587582	      9.38496537	     -2.46782770	     10.87092383	     -3.77438820	     -7.41920855	     -9.95905151	     14.53970197	      0.21198577	      4.43710712	      1.19241989	     12.75570243
      0.17000000	    -10.88118962	      2.99787584	    -32.98087828	     -0.99116142	      0.88307318	     -0.38767654	     11.75199266	      2.02751148	      4.01317064	     -5.31732996	      9.38617165	     -2.46752061	     10.87550619	     -3.77312191	     -7.42058856	     -9.95476203	     14.54087711	      0.21078102	      4.43108612	      1.18292916	     12.76001330
      0.18000000	    -10.91440444	      3.03012265	    -32.93877738	     -0.99097421	      0.88299277	     -0.38779647	     11.79589534	      1.99772164	      3.97387877	     -5.32788092	      9.41394055	     -2.45934779	     10.92847784	     -3.74282413	     -7.36363766	     -9.96518347	     14.55265018	      0.17939290	      4.47173597	      1.15505716	     12.74720599
      0.19000000	    -10.92658385	      3.02531101	    -32.92283534	     -0.99077623	      0.88297581	     -0.38784837	     11.79266688	      1.99650026	      3.97303828	     -5.32934394	      9.41502254	     -2.45888033	     10.92947431	     -3.74182624	     -7.36424132	     -9.96507864	     14.55301370	      0.17796268	      4.46908452	      1.15092376	     12.75514582
      0.20000000	    -10.94897504	      3.01834732	    -32.87292300	     -0.99051997	      0.88293901	     -0.38795173	     11.78327545	      1.99297712	      3.90707551	     -5.30843404	      9.42929271	     -2.44782954	     10.95037740	     -3.73957834	     -7.30505207	     -9.98190323	     14.57635174	      0.14808970	      4.47837235	      1.15449381	     12.73692717
      0.21000000	    -10.96064985	      3.01397294	    -32.85655604	     -0.99027943	      0.88292063	     -0.38800504	     11.77764553	      1.98954750	      3.90628836	     -5.31066024	      9.43000664	     -2.44734966	     10.94930906	     -3.73607616	     -7.30495936	     -9.98273439	     14.57704785	      0.14681981	      4.47963374	      1.15296595	     12.74450666
      0.22000000	    -10.98076220	      3.01345006	    -32.80478984	     -0.98998387	      0.88288239	     -0.38811172	     11.76441528	      1.97711364	      3.83862760	     -5.28284372	      9.44456102	     -2.43558916	     10.96855169	     -3.72418574	     -7.24269848	     -9.99589563	     14.60017744	      0.12024215	      4.49521134	      1.14982884	     12.72576475
      0.23000000	    -10.99537931	      3.01009216	    -32.78369432	     -0.98970373	      0.88285666	     -0.38816988	     11.75486445	      1.97190043	      3.81578307	     -5.27402404	      9.45246190	     -2.43210483	     10.97363856	     -3.71967585	     -7.22820929	    -10.00526996	     14.60350667	      0.11272305	      4.50601484	      1.14772110	     12.74849072
      0.24000000	    -11.01011520	      3.00769259	    -32.75448571	     -0.98942040	      0.88282844	     -0.38826277	     11.74559072	      1.96255394	      3.79140570	     -5.26268324	      9.46242490	     -2.42876838	     10.98305389	     -3.71104152	     -7.21152407	    -10.01442303	     14.61494797	      0.10610900	      4.51485528	      1.14370546	     12.76660423
      0.25000000	    -11.03048123	      3.00573181	    -32.70195590	     -0.98909162	      0.88278272	     -0.38837697	     11.73994293	      1.95044613	      3.72838987	     -5.25647645	      9.48028927	     -2.41316347	     11.00968780	     -3.70091530	     -7.15390960	    -10.04656817	     14.64677933	      0.08031532	      4.53774013	      1.14117717	     12.73855805
      0.26000000	    -11.04732057	      2.99624835	    -32.66250986	     -0.98878150	      0.88274936	     -0.38848904	     11.72971996	      1.94561579	      3.68410780	     -5.25216648	      9.49419831	     -2.39888872	     11.02759854	     -3.69800899	     -7.11788296	    -10.07549034	     14.66544832	      0.06116628	      4.54950187	      1.14264738	     12.74448737
      0.27000000	    -11.05473008	      2.98595497	    -32.63422684	     -0.98847300	      0.88272942	     -0.38859166	     11.71016190	      1.93770897	      3.66099876	     -5.24594453	      9.50521250	     -2.39492317	     11.03358559	     -3.69260118	     -7.09374550	    -10.10333330	     14.67524636	      0.05741837	      4.55233419	      1.13844366	     12.76920385
      0.28000000	    -11.05399756	      2.95854221	    -32.56899532	     -0.98812219	      0.88272142	     -0.38875810	     11.66838566	      1.93056286	      3.58989870	     -5.23595918	      9.52689257	     -2.38035451	     11.03645228	     -3.68947791	     -7.03629439	    -10.14611369	     14.71964611	      0.04691903	      4.53476508	      1.14526182	     12.72912651
      0.29000000	    -11.04588507	      2.92427340	    -32.51234028	     -0.98776864	      0.88273212	     -0.38891586	     11.61554412	      1.92688800	      3.52814876	     -5.22448866	      9.54145764	     -2.36540026	     11.02383433	     -3.68937033	     -6.98081579	    -10.18291511	     14.74787049	      0.04120742	      4.50679855	      1.15432936	     12.70560971
